<?xml version="1.0" encoding="UTF-8"?>
<svg id="Layer_1" data-name="Layer 1" xmlns="http://www.w3.org/2000/svg" viewBox="0 0 288 228.395">
  <defs>
    <style>
      .cls-1 {
        fill: #242425;
      }

      .cls-1, .cls-2, .cls-3 {
        stroke-width: 0px;
      }

      .cls-4 {
        fill: none;
        stroke: #75767a;
        stroke-miterlimit: 10;
        stroke-width: .5px;
      }

      .cls-2 {
        fill: #75767a;
      }

      .cls-3 {
        fill: #747579;
      }
    </style>
  </defs>
  <rect class="cls-1" x="66.162" y="52.679" width="161.617" height="90.383"/>
  <polygon class="cls-2" points="131.417 77.53 128.438 77.53 128.438 67.019 141.119 67.019 147.842 76.934 154.225 67.019 164.481 67.019 164.481 97.87 154.779 97.87 154.608 86.721 147.672 97.657 141.63 87.487 141.332 97.87 131.544 97.87 131.417 77.53"/>
  <path class="cls-4" d="M125.971,63.82c5.378-1.292,12.452-2.467,20.78-2.488,8.529-.021,15.76,1.176,21.219,2.488v34.389c-1.609,2.685-3.998,6.044-7.463,9.365-4.959,4.753-9.239,7.435-12.733,8.926-3.381-1.171-10.269-3.811-15.656-9.658-3.053-3.314-4.96-6.655-6.146-9.219v-33.803Z"/>
  <g>
    <path class="cls-3" d="M111.074,128.794v-7.7h1.474l3.278,5.434h-.781l3.212-5.434h1.485v7.7h-1.661l-.022-5.137h.33l-2.596,4.312h-.792l-2.629-4.312h.363v5.137h-1.661Z"/>
    <path class="cls-3" d="M123.646,127.364h4.191v1.43h-5.962v-7.7h5.819v1.43h-4.048v4.84ZM123.514,124.186h3.707v1.397h-3.707v-1.397Z"/>
    <path class="cls-3" d="M131.148,128.794v-6.248h-2.464v-1.452h6.71v1.452h-2.464v6.248h-1.782Z"/>
    <path class="cls-3" d="M135.636,128.794l3.421-7.7h1.76l3.454,7.7h-1.87l-2.827-6.798h.715l-2.827,6.798h-1.826ZM137.363,127.145l.451-1.353h3.982l.462,1.353h-4.895Z"/>
    <path class="cls-3" d="M145.371,128.794v-7.7h1.793v6.248h3.839v1.452h-5.632Z"/>
    <path class="cls-3" d="M159.407,128.926c-.594,0-1.146-.097-1.655-.292-.51-.194-.951-.471-1.325-.831-.374-.359-.666-.781-.875-1.265s-.313-1.016-.313-1.595.104-1.111.313-1.595c.209-.484.502-.906.88-1.265s.821-.636,1.331-.831,1.062-.292,1.655-.292c.668,0,1.272.116,1.815.347s.997.57,1.364,1.018l-1.155,1.056c-.257-.3-.548-.528-.875-.682-.326-.154-.68-.231-1.062-.231-.359,0-.688.061-.989.182s-.562.292-.781.512c-.22.22-.391.48-.512.781-.121.301-.182.634-.182,1.001s.061.701.182,1.001c.121.301.292.561.512.781.22.22.48.39.781.511s.63.182.989.182c.382,0,.735-.079,1.062-.236.327-.158.618-.387.875-.688l1.155,1.056c-.367.448-.821.789-1.364,1.023-.543.235-1.151.352-1.826.352Z"/>
    <path class="cls-3" d="M165.875,128.794h-1.793v-7.7h1.793v7.7ZM169.494,125.637h-3.762v-1.507h3.762v1.507ZM169.362,121.094h1.782v7.7h-1.782v-7.7Z"/>
    <path class="cls-3" d="M175.038,127.364h4.191v1.43h-5.962v-7.7h5.818v1.43h-4.048v4.84ZM174.906,124.186h3.707v1.397h-3.707v-1.397Z"/>
    <path class="cls-3" d="M182.738,128.794h-1.793v-7.7h5.818v1.43h-4.025v6.27ZM182.595,124.56h3.696v1.43h-3.696v-1.43Z"/>
    <path class="cls-3" d="M125.989,137.794v-7.7h3.333c.689,0,1.283.112,1.782.336s.884.544,1.155.962c.271.418.407.913.407,1.485,0,.58-.136,1.076-.407,1.491-.271.414-.657.735-1.155.962-.499.227-1.093.341-1.782.341h-2.354l.814-.803v2.926h-1.793ZM127.782,135.066l-.814-.847h2.255c.542,0,.953-.117,1.232-.352.279-.235.418-.565.418-.99s-.139-.753-.418-.984-.689-.347-1.232-.347h-2.255l.814-.847v4.367Z"/>
    <path class="cls-3" d="M136.648,137.794l-3.333-7.7h1.936l2.904,6.82h-1.133l2.948-6.82h1.771l-3.333,7.7h-1.76Z"/>
    <path class="cls-3" d="M144.436,137.794v-6.248h-2.464v-1.452h6.71v1.452h-2.464v6.248h-1.782Z"/>
    <path class="cls-3" d="M153.346,137.794v-7.7h1.793v6.248h3.839v1.452h-5.632Z"/>
    <path class="cls-3" d="M161.882,137.794v-6.248h-2.464v-1.452h6.71v1.452h-2.464v6.248h-1.782Z"/>
    <path class="cls-3" d="M167.382,137.794v-7.7h3.498c.836,0,1.573.16,2.211.479.638.319,1.137.767,1.496,1.342s.539,1.252.539,2.029-.18,1.454-.539,2.03-.858,1.023-1.496,1.342-1.375.479-2.211.479h-3.498ZM169.175,136.342h1.617c.514,0,.959-.097,1.337-.292.377-.194.671-.473.88-.836.209-.363.313-.787.313-1.271,0-.491-.104-.917-.313-1.276s-.503-.636-.88-.831c-.378-.194-.823-.292-1.337-.292h-1.617v4.796Z"/>
  </g>
</svg>